<svg width="54" height="40" viewBox="0 0 54 40" xmlns="http://www.w3.org/2000/svg"><title>cnbc</title><desc>Created with Sketch.</desc><g fill="none"><g fill="#737C81"><g><g><path d="M9.51 33.883c-.2-.954-.984-1.208-1.864-1.29-2.842-.26-3.346 1.854-3.346 2.746 0 1.526.448 2.79 3.238 2.79.514 0 1.935-.53 1.935-1.385h4.012c-.162 2.54-4.452 3.15-6.323 3.15-3.878 0-7.197-.72-7.037-4.522.115-2.715 2.69-4.62 7.816-4.5 2.86.065 5.6.952 5.614 3.01H9.51M49.694 33.883c-.197-.954-.984-1.208-1.863-1.29-2.84-.26-3.343 1.854-3.343 2.746 0 1.526.448 2.79 3.238 2.79.514 0 1.934-.53 1.934-1.385h4.01c-.16 2.54-4.45 3.15-6.322 3.15-3.878 0-7.197-.72-7.037-4.522.116-2.715 2.693-4.62 7.817-4.5 2.856.065 5.6.952 5.612 3.01h-4.045M14.27 31.055h5.207l4.444 6.203h.038v-6.203h3.34v8.613h-4.99l-4.663-6.203h-.037v6.203H14.27v-8.613"/><path d="M28.326 31.055h6.326c3.04 0 4.83.846 4.83 2.123 0 .754-.75 1.686-2.42 1.96v.024c2.01.12 2.753 1.385 2.753 2.143 0 1.518-1.744 2.363-5.144 2.363h-6.343v-8.613zm3.662 2.347h1.05c1.614 0 2.47-.126 2.47-.794 0-.716-.712-.954-2.166-.954h-1.354v1.748zm0 3.46h1.05c1.946 0 2.66-.202 2.66-.87 0-.716-.902-.955-2.356-.955h-1.354v1.826zM44.93 17.853l-14.913 9.905L35.04 15.9l2.382-5.52c.965-1.785 2.782-2.923 4.765-2.954 1.9 0 3.584.908 4.652 2.536 1.097 1.628 1.16 4.29.06 5.94-.493.77-1.223 1.46-1.97 1.95M37.504 8.5L30.13 25.817l-.33-1.888-2.217-14.197c-.092-.866.267-1.596.965-2.077l1.058-.626c.062-.22-.247-.293-.39-.366l-2.075-.02c-.13-2.047.773-3.905 2.518-5.02 1.356-.878 3.42-1.108 4.93-.398 1.96.793 3.327 2.87 3.358 4.99-.01.782-.144 1.586-.44 2.285M23.342 25.88l-7.26-17.36c-.782-1.858-.453-4.3.882-5.804 1.427-1.576 3.44-2.244 5.515-1.71 1.754.426 3.397 2.097 3.83 3.88.204.67.173 1.473.132 2.204l-3.1 18.787M7.824 17.226c-1.49-1.283-2.157-2.995-1.94-4.978.214-2.004 1.806-3.966 3.706-4.572 1.952-.605 4.077-.125 5.495 1.326.595.564.965 1.23 1.273 1.92l7.014 16.867L7.824 17.224M6.23 29.55c-1.94-.22-3.436-1.26-4.348-3.026-.924-1.784-.684-4.315.558-5.897 1.353-1.61 3.31-2.42 5.284-2.024.804.13 1.48.473 2.113.87l15.096 10.08L6.23 29.55M47.214 29.55c1.94-.22 3.436-1.26 4.348-3.026.924-1.784.684-4.315-.558-5.897-1.354-1.61-3.312-2.42-5.285-2.024-.806.13-1.48.473-2.114.87L28.51 29.553l18.704-.005"/></g></g></g></g></svg>