<svg width="160" height="24" viewBox="0 0 160 24" xmlns="http://www.w3.org/2000/svg"><title>Fast</title><desc>Created with Sketch Beta.</desc><g fill="none"><g fill="#737C81"><g><path d="M75.95 6.552c0 3.143-.32 12.886-.32 12.886 0 1.885.64 2.724 2.45 2.724V23h-7.135v-.838c1.81 0 2.77-.84 2.77-2.724l.638-15.924c-.532-1.257-1.065-1.676-2.45-1.78V1h5.43l5.75 14.876L88.94 1h4.9v.733c-1.385 0-2.13.63-2.13 2.095l.638 15.4c0 2.305.426 2.934 2.342 2.934V23h-8.2v-.838c1.6 0 2.344-.524 2.238-2.934 0 0-.32-10.79-.426-12.676l-3.94 10.687c-.533 1.36-1.065 2.93-1.49 4.605l-1.278.105c-.32-1.15-1.172-3.246-1.172-3.246S77.122 9.59 75.95 6.55m-6.708 17.135c-.427-.105-.852-.105-1.278-.105-.852 0-2.342.42-4.153.42-6.92 0-12.03-4.096-12.03-11.658C51.78 5.936 56.57 1 63.92 1c1.704 0 3.62.315 5.217.945.32-.316.426-.525.745-.84h.64c-.108 1.155-.534 4.936-.534 4.936h-.64c-.425-2.203-1.596-3.673-5.323-3.673-4.472 0-8.518 3.466-8.518 9.872 0 7.246 4.152 10.397 8.73 10.397 2.983 0 4.793-1.68 5.964-3.78l.743.314-1.703 4.516M49.117 5.79h-.745c-.107-2.022-.746-2.66-2.343-2.66h-3.09v16.717c0 2.77.532 3.3 2.342 3.3V24h-7.987v-.852c1.81 0 2.343-.532 2.343-3.408V3.13h-3.09c-2.022 0-2.342.532-2.874 2.66h-.745L33.464 1l.533.107c.212.532.64.532 1.916.532h10.33c1.915 0 2.342 0 2.768-.64h.64l-.532 4.79M26.543 24c-1.49 0-2.66-.21-3.514-.523-.854-.208-1.49-.523-1.81-.73-.428.417-.748.94-.748.94l-.64-.21.533-4.913.746.104c.427 2.3 2.024 3.973 5.325 3.973 2.556 0 4.26-2.09 4.26-4.39 0-1.88-.746-2.82-3.302-4.702-.852-.523-1.597-.94-2.236-1.464-2.344-1.464-3.834-3.137-3.834-5.855.003-3.14 2.663-5.23 6.18-5.23 2.022 0 3.3.627 3.725.836L31.974 1l.532.104-.532 4.495-.746-.107c0-2.09-1.277-3.03-3.407-3.03-2.02 0-3.51 1.044-3.51 3.03 0 1.777 1.383 2.928 2.98 3.973.85.523 1.49.94 2.13 1.36C33.145 13.44 34 15.112 34 17.62 34 21.28 31.12 24 26.543 24M14.404 4.875h-.85c0-1.907-.853-2.65-2.557-2.65h-4.79V10.6h3.087c1.597 0 1.916-.85 2.13-2.226h.744v5.935h-.745c-.213-1.59-.532-2.228-2.236-2.228h-2.98v7.1c0 2.65.638 2.968 2.34 2.968V23H.457v-.848c2.023 0 2.34-.53 2.34-2.968V3.604c0-1.484-.636-2.12-2.34-2.12V.742H11.53c1.916 0 2.342-.106 2.66-.742h.747l-.532 4.875"/><path d="M129.296 6.456v12.837c0 2.782.64 3.317 2.343 3.317v.855H119.07v-.855c.96 0 1.81-.322 1.81-.963 0-.428-.106-1.177-.32-1.926l-.957-3.1h-7.028c-.107.428-1.385 3.96-1.385 4.92 0 .857.96 1.07 1.597 1.07v.857h-5.857v-.855c1.064 0 1.916-.107 2.66-2.353l5.432-17.44c-.32-.75-.746-.962-1.49-1.07V1h4.79l5.75 18.293c.533 1.926 1.066 2.89 1.918 3.317 1.277-.428 1.596-.857 1.596-3.317V3.888c-.96-1.284-1.065-2.14-2.875-2.14V1h5.43l8.944 15.298V4.638c0-2.355-.533-2.89-2.343-2.89V1h11.926v.748c-.746 0-1.385.32-1.385 1.07 0 .535.214 1.07.426 1.712l3.408 7.38 3.3-7.166c.533-.963.64-1.498.64-2.033 0-.64-.426-.96-1.385-.96V1h5.643v.748c-1.384 0-2.237 1.285-2.875 2.782l-4.367 8.986V19.4c0 2.567.64 3.21 2.344 3.21v.855h-8.093v-.855c1.704 0 2.343-.643 2.343-3.21v-5.028l-4.685-9.95c-.85-1.924-1.17-2.353-1.704-2.674-1.065.428-1.384 1.177-1.384 2.89V21.11s.106 1.283.212 2.78l-1.383.108-10.436-17.544zM115.986 5l-2.98 10h6.175L115.99 5zm-13.203 9.828h-1.597v4.505c0 2.305.638 2.83 2.45 2.83V23h-8.2v-.838c1.704 0 2.342-.63 2.342-2.934V4.458c0-2.306-.638-2.725-2.342-2.725V1h6.176c5.962 0 9.476 1.78 9.476 6.6 0 5.03-4.26 7.228-8.305 7.228zM101.718 2h-.532v11h.958c3.514 0 5.324-1.602 5.324-5.66 0-4.06-1.597-5.34-5.75-5.34zM65.622 19c-4.047 0-6.815-2.863-6.815-7 0-3.924 2.874-7 6.815-7 3.832 0 6.708 2.97 6.708 7 0 3.924-2.982 7-6.708 7zm0-13c-2.77 0-3.727 2.546-3.727 5.5 0 2.75.85 5.5 3.727 5.5 2.768 0 3.62-2.75 3.62-5.602 0-2.75-1.065-5.398-3.62-5.398zM18.77 18v-.728c1.065 0 1.278-.312 1.278-.624 0-.416-.107-.728-.213-1.04 0 0-.213-.832-.426-1.457h-4.156l-.426 1.356c-.107.312-.214.624-.214 1.04 0 .416.427.728 1.066.728V18h-4.15v-.728c1.064 0 1.49-.312 1.916-1.456l3.195-9.36c-.104-.416-.424-.728-1.062-.728V5h3.407c2.77 7.904 3.514 9.984 3.514 9.984.53 1.768 1.064 2.288 1.916 2.288V18H18.77zM17.28 8l-1.597 5h3.3L17.28 8z"/></g></g></g></svg>