<svg width="153" height="40" viewBox="0 0 153 40" xmlns="http://www.w3.org/2000/svg"><title>Forbes</title><desc>Created with Sketch Beta.</desc><g fill="none"><g fill="#737C81"><g><path d="M93.33 11.66c-2.44 0-4.358.532-6.275 1.597 0-5.683 0-10.833.174-12.61L75.55 2.78v1.064l1.22.178c1.57.355 2.092 1.243 2.44 3.374.35 4.263.175 26.997 0 30.726 3.138.71 6.45 1.244 9.762 1.244 9.24 0 14.815-5.86 14.815-15.097 0-7.285-4.53-12.61-10.457-12.61zm-4.01 25.75c-.697 0-1.57 0-2.09-.175-.175-2.487-.35-12.966-.175-22.2 1.045-.357 1.742-.534 2.614-.534 3.83 0 5.924 4.62 5.924 10.304 0 7.104-2.614 12.61-6.275 12.61zM31.624 1.358H.946v1.598l1.743.177c2.263.356 3.135 1.777 3.483 5.15.524 6.395.35 17.94 0 23.446-.348 3.37-1.22 4.97-3.486 5.15l-1.744.353v1.42H20.64v-1.42l-2.09-.356c-2.266-.177-3.137-1.777-3.486-5.15-.175-2.31-.35-6.04-.35-10.658l4.185.176c2.613 0 3.832 2.13 4.356 5.15h1.568V13.79h-1.568c-.524 3.02-1.743 5.15-4.358 5.15l-4.185.178c0-6.038.174-11.722.35-15.096h6.1c4.706 0 7.147 3.02 8.89 8.347l1.743-.536-.176-10.478M41.56 11.304c8.715 0 13.073 6.04 13.073 14.03 0 7.637-4.88 14.032-13.596 14.032-8.716 0-13.073-6.04-13.073-14.032 0-7.636 4.88-14.03 13.595-14.03zm-.523 1.776c-3.835 0-4.88 5.328-4.88 12.254 0 6.75 1.743 12.256 5.23 12.256 4.008 0 5.053-5.328 5.053-12.256 0-6.748-1.742-12.254-5.403-12.254zm65.017 12.432c0-7.28 4.532-14.208 13.423-14.208 7.32 0 10.806 5.506 10.806 12.787H114.07c-.172 6.576 2.966 11.37 9.24 11.37 2.79 0 4.184-.71 5.928-1.953l.696.888c-1.743 2.486-5.577 4.973-10.457 4.973-7.845 0-13.423-5.684-13.423-13.854zm8.017-3.373l8.197-.18c0-3.554-.522-8.88-3.486-8.88-2.963 0-4.532 4.97-4.71 9.06zm36.955-9.415c-2.092-.89-4.88-1.42-8.017-1.42-6.45 0-10.46 3.905-10.46 8.524 0 4.615 2.964 6.57 7.148 7.99 4.356 1.6 5.577 2.842 5.577 4.972 0 2.132-1.568 4.085-4.357 4.085-3.312 0-5.753-1.954-7.67-7.283l-1.22.356.175 7.815c2.095.888 5.93 1.6 9.24 1.6 6.8 0 11.157-3.554 11.157-9.058 0-3.732-1.918-5.863-6.45-7.64-4.88-1.953-6.623-3.196-6.623-5.506s1.57-3.905 3.66-3.905c3.137 0 5.23 1.953 6.798 6.75l1.22-.356-.174-6.926m-73.735-.71c-2.962-1.776-8.193-.89-10.982 5.506l.178-6.216-11.68 2.308v1.066l1.22.177c1.57.18 2.267 1.066 2.442 3.376.347 4.265.173 11.725 0 15.454-.176 2.13-.873 3.197-2.44 3.376l-1.22.176v1.42h16.21v-1.42l-2.093-.177c-1.743-.18-2.265-1.247-2.44-3.378-.35-3.373-.35-10.123-.175-14.385.873-1.245 4.708-2.31 8.194 0l2.79-7.283"/></g></g></g></svg>