<svg width="160" height="37" viewBox="0 0 160 37" xmlns="http://www.w3.org/2000/svg" xmlns:xlink="http://www.w3.org/1999/xlink"><title>Reu</title><desc>Created with Sketch Beta.</desc><defs><path d="M4.886.106c-.28.227-.377.755-.23 1.17.148.427.5.58.78.356.277-.23.38-.755.23-1.178C5.566.166 5.366 0 5.16 0c-.093 0-.187.033-.274.106M6.61.072c-.282.15-.382.5-.233.782.148.28.495.385.773.23.285-.15.386-.5.236-.78C7.286.11 7.09 0 6.886 0c-.094 0-.19.023-.277.072m-3.295.61c-.414.228-.574.756-.344 1.17.227.423.745.585 1.167.357.417-.23.567-.756.346-1.175-.154-.293-.453-.46-.76-.46-.138 0-.278.035-.41.106m5.02-.035c-.28.155-.386.51-.236.787.15.28.503.383.773.23.286-.153.39-.5.235-.78C9.003.69 8.805.578 8.6.578c-.09 0-.18.022-.266.068M2.176 1.84c-.423.232-.58.748-.35 1.178.227.416.74.574 1.158.347.423-.226.58-.754.354-1.17-.153-.29-.454-.46-.76-.46-.138 0-.276.033-.402.104m7.303-.037c-.286.157-.386.506-.24.784.15.278.495.38.78.236.275-.158.383-.507.23-.787-.105-.194-.3-.304-.503-.306-.093 0-.184.024-.27.07m.99 1.73c-.134.156-.19.515-.112.79.074.283.25.382.386.234.14-.154.195-.496.118-.778-.053-.2-.153-.31-.257-.31-.044 0-.09.018-.133.063m-9.594 0c-.28.154-.383.507-.238.785.153.28.5.388.778.236.278-.15.385-.502.234-.785-.106-.194-.303-.3-.506-.3-.09 0-.183.02-.27.065M11.2 4.69c-.28.15-.388.504-.234.783.147.28.498.384.766.24.284-.163.39-.514.245-.792-.105-.19-.304-.3-.507-.3-.09 0-.183.024-.27.07M.297 5.27c-.275.15-.377.5-.23.78.154.284.5.387.78.237.276-.152.38-.507.232-.783C.973 5.31.78 5.2.573 5.2c-.094 0-.19.024-.28.073M11.2 6.426c-.284.158-.382.505-.24.792.15.276.51.378.785.23.28-.153.38-.506.227-.784-.1-.196-.298-.305-.5-.305-.093 0-.187.02-.273.065m-10.904.58c-.274.153-.38.51-.23.787.153.285.502.383.774.227.28-.145.39-.503.235-.78-.108-.195-.303-.304-.507-.304-.092 0-.185.022-.272.068m10.327 1.158c-.28.15-.383.506-.235.786.155.275.5.38.776.23.284-.154.382-.5.237-.784-.104-.192-.3-.303-.506-.303-.09 0-.184.023-.27.07m-9.174.58c-.284.148-.383.498-.234.788.15.275.495.38.78.234.275-.16.38-.51.228-.788-.105-.19-.305-.302-.507-.302-.093 0-.184.024-.267.07m8.027.614c-.28.227-.382.756-.232 1.175.147.424.495.58.777.35.28-.22.382-.753.23-1.172-.105-.29-.302-.456-.504-.456-.092 0-.185.036-.27.107m-7.455.54c-.28.146-.384.503-.234.783.144.285.492.39.773.233.278-.147.385-.498.234-.783-.103-.193-.3-.302-.506-.302-.092 0-.184.02-.27.068m6.457.62c-.416.224-.576.75-.346 1.172.227.42.75.574 1.168.353.415-.232.57-.76.345-1.17-.155-.294-.45-.464-.757-.464-.14 0-.28.034-.41.11m-4.735-.04c-.284.155-.386.5-.23.78.145.28.494.39.773.236.28-.156.383-.51.232-.785-.105-.19-.3-.3-.503-.3-.092 0-.185.02-.27.07m2.86.61c-.28.226-.377.75-.225 1.177.145.417.493.583.774.346.283-.223.38-.75.234-1.17-.106-.29-.303-.456-.508-.456-.093 0-.187.034-.275.103m-1.72-.037c-.277.153-.375.506-.23.785.154.283.5.388.778.236.28-.147.383-.5.232-.783-.1-.193-.3-.3-.506-.3-.094 0-.187.02-.275.065" id="a"/><linearGradient x1="50%" y1="0%" x2="50%" y2="100%" id="b"><stop stop-color="#fff" offset="0%"/><stop offset="100%"/></linearGradient><path d="M4.886.106c-.28.227-.377.755-.23 1.17.148.427.5.58.78.356.277-.23.38-.755.23-1.178C5.566.166 5.366 0 5.16 0c-.093 0-.187.033-.274.106M6.61.072c-.282.15-.382.5-.233.782.148.28.495.385.773.23.285-.15.386-.5.236-.78C7.286.11 7.09 0 6.886 0c-.094 0-.19.023-.277.072m-3.295.61c-.414.228-.574.756-.344 1.17.227.423.745.585 1.167.357.417-.23.567-.756.346-1.175-.154-.293-.453-.46-.76-.46-.138 0-.278.035-.41.106m5.02-.035c-.28.155-.386.51-.236.787.15.28.503.383.773.23.286-.153.39-.5.235-.78C9.003.69 8.805.578 8.6.578c-.09 0-.18.022-.266.068M2.176 1.84c-.423.232-.58.748-.35 1.178.227.416.74.574 1.158.347.423-.226.58-.754.354-1.17-.153-.29-.454-.46-.76-.46-.138 0-.276.033-.402.104m7.303-.037c-.286.157-.386.506-.24.784.15.278.495.38.78.236.275-.158.383-.507.23-.787-.105-.194-.3-.304-.503-.306-.093 0-.184.024-.27.07m.99 1.73c-.134.156-.19.515-.112.79.074.283.25.382.386.234.14-.154.195-.496.118-.778-.053-.2-.153-.31-.257-.31-.044 0-.09.018-.133.063m-9.594 0c-.28.154-.383.507-.238.785.153.28.5.388.778.236.278-.15.385-.502.234-.785-.106-.194-.303-.3-.506-.3-.09 0-.183.02-.27.065M11.2 4.69c-.28.15-.388.504-.234.783.147.28.498.384.766.24.284-.163.39-.514.245-.792-.105-.19-.304-.3-.507-.3-.09 0-.183.024-.27.07M.297 5.27c-.275.15-.377.5-.23.78.154.284.5.387.78.237.276-.152.38-.507.232-.783C.973 5.31.78 5.2.573 5.2c-.094 0-.19.024-.28.073M11.2 6.426c-.284.158-.382.505-.24.792.15.276.51.378.785.23.28-.153.38-.506.227-.784-.1-.196-.298-.305-.5-.305-.093 0-.187.02-.273.065m-10.904.58c-.274.153-.38.51-.23.787.153.285.502.383.774.227.28-.145.39-.503.235-.78-.108-.195-.303-.304-.507-.304-.092 0-.185.022-.272.068m10.327 1.158c-.28.15-.383.506-.235.786.155.275.5.38.776.23.284-.154.382-.5.237-.784-.104-.192-.3-.303-.506-.303-.09 0-.184.023-.27.07m-9.174.58c-.284.148-.383.498-.234.788.15.275.495.38.78.234.275-.16.38-.51.228-.788-.105-.19-.305-.302-.507-.302-.093 0-.184.024-.267.07m8.027.614c-.28.227-.382.756-.232 1.175.147.424.495.58.777.35.28-.22.382-.753.23-1.172-.105-.29-.302-.456-.504-.456-.092 0-.185.036-.27.107m-7.455.54c-.28.146-.384.503-.234.783.144.285.492.39.773.233.278-.147.385-.498.234-.783-.103-.193-.3-.302-.506-.302-.092 0-.184.02-.27.068m6.457.62c-.416.224-.576.75-.346 1.172.227.42.75.574 1.168.353.415-.232.57-.76.345-1.17-.155-.294-.45-.464-.757-.464-.14 0-.28.034-.41.11m-4.735-.04c-.284.155-.386.5-.23.78.145.28.494.39.773.236.28-.156.383-.51.232-.785-.105-.19-.3-.3-.503-.3-.092 0-.185.02-.27.07m2.86.61c-.28.226-.377.75-.225 1.177.145.417.493.583.774.346.283-.223.38-.75.234-1.17-.106-.29-.303-.456-.508-.456-.093 0-.187.034-.275.103m-1.72-.037c-.277.153-.375.506-.23.785.154.283.5.388.778.236.28-.147.383-.5.232-.783-.1-.193-.3-.3-.506-.3-.094 0-.187.02-.275.065" id="d"/><path d="M6.918.622c-.136.46.123.94.58 1.077.457.133.93-.134 1.068-.59.136-.46-.124-.942-.58-1.076C7.903.01 7.82 0 7.74 0c-.374 0-.71.246-.822.622m2.305.788c-.178.613.16 1.25.776 1.433.604.18 1.24-.17 1.42-.775.182-.62-.167-1.262-.777-1.443-.107-.032-.214-.047-.322-.047-.497 0-.954.328-1.1.832m-4.6-.212c-.132.46.13.942.588 1.08.452.134.932-.126 1.064-.59.13-.457-.132-.94-.582-1.077-.08-.02-.162-.03-.24-.03-.375 0-.717.246-.83.62m6.883 1.16c-.135.46.127.94.583 1.077.455.134.932-.134 1.066-.59.136-.457-.125-.938-.58-1.073-.08-.024-.162-.036-.242-.036-.373 0-.715.25-.827.625M2.89 2.15c-.088.31.083.627.388.718.304.09.623-.088.713-.393.09-.305-.083-.625-.39-.717-.05-.016-.105-.024-.16-.024-.25 0-.475.165-.547.416M13.23 3.51c-.137.466.125.944.58 1.08.457.135.93-.132 1.067-.59.137-.46-.124-.94-.582-1.074-.082-.024-.163-.035-.242-.035-.37 0-.71.247-.824.62m-11.483.955c-.09.306.088.628.39.716.302.09.618-.085.708-.39.095-.305-.085-.63-.386-.722-.053-.014-.104-.02-.157-.02-.25 0-.482.16-.556.416m12.618 1.152c-.093.31.086.63.388.72.305.09.622-.084.71-.392.088-.308-.082-.627-.386-.715-.055-.018-.11-.026-.163-.026-.248 0-.477.163-.548.412m-13.78.372c-.044.154.04.316.193.36.153.046.312-.044.356-.197.045-.15-.04-.31-.195-.356C.914 5.784.886 5.78.86 5.78c-.123 0-.237.083-.273.207m14.35 2.523c-.092.303.08.63.39.715.303.093.618-.084.71-.39.087-.303-.082-.628-.387-.717-.054-.017-.107-.024-.16-.024-.25 0-.482.164-.553.416m-14.91 0c-.092.305.087.623.39.716.3.09.616-.082.708-.39.09-.306-.082-.625-.387-.72C.684 8.102.63 8.094.58 8.094c-.248 0-.48.165-.556.416m14.897 2.105c-.04.152.047.314.197.358.154.044.313-.042.357-.197.045-.15-.04-.313-.195-.358-.027-.008-.05-.012-.078-.012-.124 0-.24.082-.28.21M.6 11.398c-.087.305.08.63.39.72.3.09.62-.087.71-.396.09-.306-.085-.627-.388-.712-.058-.016-.114-.026-.17-.026-.25 0-.475.163-.544.414m13.19 1.736c-.088.308.086.63.385.717.31.094.63-.082.718-.39.09-.3-.083-.626-.387-.72-.055-.01-.108-.02-.16-.02-.25 0-.48.164-.553.416m-12.604.21c-.135.456.123.935.58 1.073.46.136.932-.127 1.07-.585.133-.46-.13-.944-.586-1.08-.08-.024-.16-.034-.242-.034-.37 0-.71.247-.822.624m10.882 1.525c-.086.303.09.626.392.717.302.09.62-.087.708-.39.093-.308-.083-.628-.384-.717-.053-.02-.11-.028-.163-.028-.246 0-.474.167-.55.415m-9.162.212c-.134.452.122.935.58 1.07.46.134.935-.13 1.07-.586.132-.458-.128-.943-.587-1.078-.08-.024-.16-.035-.24-.035-.373 0-.71.246-.82.628m2.302.78c-.175.617.165 1.255.778 1.437.61.177 1.25-.176 1.423-.78.177-.618-.166-1.26-.78-1.44-.108-.032-.216-.047-.32-.047-.5 0-.958.326-1.1.83m4.574-.206c-.132.46.13.94.583 1.076.46.135.934-.126 1.07-.59.13-.454-.125-.938-.584-1.072-.08-.027-.164-.037-.246-.037-.37 0-.715.25-.823.624m-2.294.58c-.132.456.13.936.585 1.073.457.138.936-.126 1.066-.584.133-.462-.122-.944-.58-1.078-.08-.025-.162-.036-.243-.036-.372 0-.714.245-.826.624" id="e"/><path d="M6.918.622c-.136.46.123.94.58 1.077.457.133.93-.134 1.068-.59.136-.46-.124-.942-.58-1.076C7.903.01 7.82 0 7.74 0c-.374 0-.71.246-.822.622m2.305.788c-.178.613.16 1.25.776 1.433.604.18 1.24-.17 1.42-.775.182-.62-.167-1.262-.777-1.443-.107-.032-.214-.047-.322-.047-.497 0-.954.328-1.1.832m-4.6-.212c-.132.46.13.942.588 1.08.452.134.932-.126 1.064-.59.13-.457-.132-.94-.582-1.077-.08-.02-.162-.03-.24-.03-.375 0-.717.246-.83.62m6.883 1.16c-.135.46.127.94.583 1.077.455.134.932-.134 1.066-.59.136-.457-.125-.938-.58-1.073-.08-.024-.162-.036-.242-.036-.373 0-.715.25-.827.625M2.89 2.15c-.088.31.083.627.388.718.304.09.623-.088.713-.393.09-.305-.083-.625-.39-.717-.05-.016-.105-.024-.16-.024-.25 0-.475.165-.547.416M13.23 3.51c-.137.466.125.944.58 1.08.457.135.93-.132 1.067-.59.137-.46-.124-.94-.582-1.074-.082-.024-.163-.035-.242-.035-.37 0-.71.247-.824.62m-11.483.955c-.09.306.088.628.39.716.302.09.618-.085.708-.39.095-.305-.085-.63-.386-.722-.053-.014-.104-.02-.157-.02-.25 0-.482.16-.556.416m12.618 1.152c-.093.31.086.63.388.72.305.09.622-.084.71-.392.088-.308-.082-.627-.386-.715-.055-.018-.11-.026-.163-.026-.248 0-.477.163-.548.412m-13.78.372c-.044.154.04.316.193.36.153.046.312-.044.356-.197.045-.15-.04-.31-.195-.356C.914 5.784.886 5.78.86 5.78c-.123 0-.237.083-.273.207m14.35 2.523c-.092.303.08.63.39.715.303.093.618-.084.71-.39.087-.303-.082-.628-.387-.717-.054-.017-.107-.024-.16-.024-.25 0-.482.164-.553.416m-14.91 0c-.092.305.087.623.39.716.3.09.616-.082.708-.39.09-.306-.082-.625-.387-.72C.684 8.102.63 8.094.58 8.094c-.248 0-.48.165-.556.416m14.897 2.105c-.04.152.047.314.197.358.154.044.313-.042.357-.197.045-.15-.04-.313-.195-.358-.027-.008-.05-.012-.078-.012-.124 0-.24.082-.28.21M.6 11.398c-.087.305.08.63.39.72.3.09.62-.087.71-.396.09-.306-.085-.627-.388-.712-.058-.016-.114-.026-.17-.026-.25 0-.475.163-.544.414m13.19 1.736c-.088.308.086.63.385.717.31.094.63-.082.718-.39.09-.3-.083-.626-.387-.72-.055-.01-.108-.02-.16-.02-.25 0-.48.164-.553.416m-12.604.21c-.135.456.123.935.58 1.073.46.136.932-.127 1.07-.585.133-.46-.13-.944-.586-1.08-.08-.024-.16-.034-.242-.034-.37 0-.71.247-.822.624m10.882 1.525c-.086.303.09.626.392.717.302.09.62-.087.708-.39.093-.308-.083-.628-.384-.717-.053-.02-.11-.028-.163-.028-.246 0-.474.167-.55.415m-9.162.212c-.134.452.122.935.58 1.07.46.134.935-.13 1.07-.586.132-.458-.128-.943-.587-1.078-.08-.024-.16-.035-.24-.035-.373 0-.71.246-.82.628m2.302.78c-.175.617.165 1.255.778 1.437.61.177 1.25-.176 1.423-.78.177-.618-.166-1.26-.78-1.44-.108-.032-.216-.047-.32-.047-.5 0-.958.326-1.1.83m4.574-.206c-.132.46.13.94.583 1.076.46.135.934-.126 1.07-.59.13-.454-.125-.938-.584-1.072-.08-.027-.164-.037-.246-.037-.37 0-.715.25-.823.624m-2.294.58c-.132.456.13.936.585 1.073.457.138.936-.126 1.066-.584.133-.462-.122-.944-.58-1.078-.08-.025-.162-.036-.243-.036-.372 0-.714.245-.826.624" id="g"/><path d="M12.355.36c-.434.467-.413 1.2.05 1.638.46.437 1.19.416 1.62-.047.436-.47.41-1.194-.05-1.635-.22-.21-.502-.313-.783-.313-.307 0-.612.12-.837.36M8.838.85c-.327.35-.313.896.036 1.228.343.328.89.31 1.216-.04.324-.346.308-.898-.038-1.225-.167-.157-.38-.235-.59-.235-.228 0-.457.09-.624.272m6.386.67c-.434.465-.416 1.193.045 1.635.46.437 1.19.414 1.62-.047.433-.464.414-1.2-.047-1.635-.225-.21-.506-.317-.788-.317-.306 0-.608.124-.833.365m-8.76.398c-.216.234-.206.595.023.818.234.217.595.208.813-.025.216-.23.204-.6-.025-.817-.113-.106-.254-.158-.394-.158-.153 0-.306.06-.42.182m11.057.852c-.437.577-.42 1.49.045 2.04.46.55 1.188.52 1.62-.055.435-.59.414-1.502-.046-2.05-.223-.262-.505-.392-.786-.392-.303 0-.61.154-.834.456M4.17 3.65c-.22.234-.21.597.02.816.234.223.594.21.81-.023.217-.233.207-.598-.02-.816-.115-.105-.257-.157-.4-.157-.15 0-.302.057-.412.177m15.063 1.92c-.432.463-.413 1.195.05 1.633.463.44 1.19.414 1.62-.05.436-.464.415-1.192-.05-1.634-.218-.21-.5-.313-.78-.313-.304 0-.61.122-.838.364m-17.36.973c-.22.232-.206.597.026.82.23.216.59.207.81-.024.213-.232.204-.598-.026-.818-.11-.105-.252-.16-.393-.16-.15 0-.304.063-.418.182M20.38 9.035c-.434.465-.413 1.196.05 1.634.46.44 1.186.412 1.62-.05.436-.464.41-1.197-.05-1.636-.22-.21-.505-.314-.787-.314-.304 0-.608.123-.834.364M.8 9.524c-.32.352-.31.894.04 1.223.34.33.89.31 1.217-.033.327-.347.307-.902-.034-1.228-.168-.158-.38-.237-.593-.237-.23 0-.458.09-.628.273m20.07 2.887c-.323.35-.303.9.04 1.227.35.332.89.312 1.217-.037.322-.348.31-.896-.04-1.225-.167-.158-.377-.234-.59-.234-.23 0-.457.094-.63.274m-19.99.67c-.433.463-.41 1.197.05 1.633.46.44 1.187.416 1.62-.047.435-.46.414-1.196-.047-1.637-.222-.21-.502-.313-.783-.313-.305 0-.612.122-.84.362m19.345 2.71c-.217.23-.207.596.023.817.234.22.596.204.813-.03.217-.23.21-.597-.022-.816-.112-.105-.253-.157-.395-.157-.152 0-.305.06-.417.18m-18.192.186c-.435.46-.42 1.192.044 1.633.464.435 1.19.412 1.623-.05.434-.463.413-1.2-.047-1.635-.222-.21-.502-.315-.78-.315-.308 0-.613.124-.84.366m1.717 2.4c-.433.588-.414 1.493.05 2.044.46.546 1.187.52 1.62-.062.435-.582.412-1.49-.05-2.043-.22-.263-.505-.394-.786-.394-.305 0-.61.152-.835.453m14.752.306c-.216.234-.205.598.025.818.234.217.595.21.81-.03.22-.228.21-.595-.025-.81-.11-.108-.248-.16-.392-.16-.15 0-.304.062-.416.182M6.618 20.6c-.432.46-.41 1.19.052 1.632.462.44 1.19.415 1.62-.048.432-.467.416-1.198-.048-1.636-.222-.21-.506-.314-.786-.314-.307 0-.612.122-.838.365m9.022-.186c-.217.233-.206.6.024.817.233.22.596.21.81-.024.217-.23.208-.596-.024-.815-.112-.105-.252-.16-.394-.16-.15 0-.303.063-.416.184m-6.153.757c-.433.466-.413 1.2.05 1.634.464.442 1.185.422 1.618-.045.435-.46.418-1.197-.046-1.633-.22-.212-.506-.316-.788-.316-.306 0-.613.12-.837.36m3.362.495c-.325.343-.31.896.037 1.224.346.33.89.307 1.215-.04.324-.344.31-.895-.035-1.225-.17-.157-.38-.235-.59-.235-.232 0-.46.094-.63.277" id="h"/><path d="M12.355.36c-.434.467-.413 1.2.05 1.638.46.437 1.19.416 1.62-.047.436-.47.41-1.194-.05-1.635-.22-.21-.502-.313-.783-.313-.307 0-.612.12-.837.36M8.838.85c-.327.35-.313.896.036 1.228.343.328.89.31 1.216-.04.324-.346.308-.898-.038-1.225-.167-.157-.38-.235-.59-.235-.228 0-.457.09-.624.272m6.386.67c-.434.465-.416 1.193.045 1.635.46.437 1.19.414 1.62-.047.433-.464.414-1.2-.047-1.635-.225-.21-.506-.317-.788-.317-.306 0-.608.124-.833.365m-8.76.398c-.216.234-.206.595.023.818.234.217.595.208.813-.025.216-.23.204-.6-.025-.817-.113-.106-.254-.158-.394-.158-.153 0-.306.06-.42.182m11.057.852c-.437.577-.42 1.49.045 2.04.46.55 1.188.52 1.62-.055.435-.59.414-1.502-.046-2.05-.223-.262-.505-.392-.786-.392-.303 0-.61.154-.834.456M4.17 3.65c-.22.234-.21.597.02.816.234.223.594.21.81-.023.217-.233.207-.598-.02-.816-.115-.105-.257-.157-.4-.157-.15 0-.302.057-.412.177m15.063 1.92c-.432.463-.413 1.195.05 1.633.463.44 1.19.414 1.62-.05.436-.464.415-1.192-.05-1.634-.218-.21-.5-.313-.78-.313-.304 0-.61.122-.838.364m-17.36.973c-.22.232-.206.597.026.82.23.216.59.207.81-.024.213-.232.204-.598-.026-.818-.11-.105-.252-.16-.393-.16-.15 0-.304.063-.418.182M20.38 9.035c-.434.465-.413 1.196.05 1.634.46.44 1.186.412 1.62-.05.436-.464.41-1.197-.05-1.636-.22-.21-.505-.314-.787-.314-.304 0-.608.123-.834.364M.8 9.524c-.32.352-.31.894.04 1.223.34.33.89.31 1.217-.033.327-.347.307-.902-.034-1.228-.168-.158-.38-.237-.593-.237-.23 0-.458.09-.628.273m20.07 2.887c-.323.35-.303.9.04 1.227.35.332.89.312 1.217-.037.322-.348.31-.896-.04-1.225-.167-.158-.377-.234-.59-.234-.23 0-.457.094-.63.274m-19.99.67c-.433.463-.41 1.197.05 1.633.46.44 1.187.416 1.62-.047.435-.46.414-1.196-.047-1.637-.222-.21-.502-.313-.783-.313-.305 0-.612.122-.84.362m19.345 2.71c-.217.23-.207.596.023.817.234.22.596.204.813-.03.217-.23.21-.597-.022-.816-.112-.105-.253-.157-.395-.157-.152 0-.305.06-.417.18m-18.192.186c-.435.46-.42 1.192.044 1.633.464.435 1.19.412 1.623-.05.434-.463.413-1.2-.047-1.635-.222-.21-.502-.315-.78-.315-.308 0-.613.124-.84.366m1.717 2.4c-.433.588-.414 1.493.05 2.044.46.546 1.187.52 1.62-.062.435-.582.412-1.49-.05-2.043-.22-.263-.505-.394-.786-.394-.305 0-.61.152-.835.453m14.752.306c-.216.234-.205.598.025.818.234.217.595.21.81-.03.22-.228.21-.595-.025-.81-.11-.108-.248-.16-.392-.16-.15 0-.304.062-.416.182M6.618 20.6c-.432.46-.41 1.19.052 1.632.462.44 1.19.415 1.62-.048.432-.467.416-1.198-.048-1.636-.222-.21-.506-.314-.786-.314-.307 0-.612.122-.838.365m9.022-.186c-.217.233-.206.6.024.817.233.22.596.21.81-.024.217-.23.208-.596-.024-.815-.112-.105-.252-.16-.394-.16-.15 0-.303.063-.416.184m-6.153.757c-.433.466-.413 1.2.05 1.634.464.442 1.185.422 1.618-.045.435-.46.418-1.197-.046-1.633-.22-.212-.506-.316-.788-.316-.306 0-.613.12-.837.36m3.362.495c-.325.343-.31.896.037 1.224.346.33.89.307 1.215-.04.324-.344.31-.895-.035-1.225-.17-.157-.38-.235-.59-.235-.232 0-.46.094-.63.277" id="j"/><path d="M16.75.018c-.467.094-.77.546-.676 1.02.094.468.546.774 1.013.68.465-.096.767-.552.674-1.02C17.68.282 17.32 0 16.925 0c-.056 0-.115.005-.173.018m-3.643.566c-.312.047-.53.338-.483.656.047.316.336.533.65.49.313-.05.53-.34.484-.658-.04-.288-.286-.494-.566-.494-.026 0-.055.003-.083.006m6.682.03c-.614.158-.986.784-.83 1.407.158.62.784.996 1.396.836.612-.158.982-.79.827-1.405-.134-.525-.6-.87-1.11-.87-.093 0-.19.01-.284.035m-10.27.59c-.29.126-.423.464-.3.76.13.292.466.427.755.3.29-.126.426-.466.3-.758-.092-.22-.304-.35-.524-.35-.075 0-.153.015-.227.048M22.8 2.38c-.753.236-1.18 1.044-.942 1.81.235.76 1.04 1.185 1.796.947.755-.237 1.176-1.048.94-1.81-.192-.618-.755-1.014-1.364-1.014-.142 0-.287.02-.43.066m-16.274.633c-.248.2-.29.56-.095.812.2.25.56.293.808.095.25-.2.292-.56.096-.812-.113-.145-.28-.22-.45-.22-.124 0-.25.042-.356.125m18.497 1.7c-.74.278-1.124 1.103-.847 1.856.276.75 1.1 1.13 1.84.853.743-.276 1.122-1.108.848-1.857-.214-.585-.762-.943-1.342-.943-.165 0-.334.03-.5.09m-21.217.65c-.388.275-.482.813-.205 1.207.276.39.813.484 1.2.207.386-.277.48-.82.204-1.208-.168-.24-.432-.37-.7-.37-.172 0-.346.053-.498.16m22.87 2.27c-.73.32-1.065 1.164-.75 1.9.313.733 1.157 1.07 1.882.756.727-.317 1.063-1.168.75-1.9-.236-.547-.762-.872-1.317-.872-.19 0-.38.037-.564.117m-24.42.64c-.535.344-.698 1.054-.356 1.596.338.54 1.047.7 1.58.36.538-.34.696-1.057.357-1.596-.22-.35-.587-.537-.966-.537-.212 0-.425.06-.616.18m25.496 2.86c-.707.352-1 1.22-.648 1.936.353.72 1.21 1.006 1.92.652.71-.352 1.002-1.217.65-1.938-.25-.508-.76-.802-1.29-.802-.212 0-.43.048-.632.15m-26.445.615c-.69.39-.937 1.266-.548 1.966.387.693 1.26.944 1.95.55.692-.39.936-1.27.55-1.967-.264-.473-.75-.738-1.25-.738-.238 0-.48.06-.703.186m26.38 3.468c-.69.388-.937 1.27-.55 1.967.39.7 1.263.942 1.95.55.69-.39.94-1.268.55-1.966-.263-.47-.748-.74-1.25-.74-.237 0-.48.062-.7.188M1.37 15.18c-.706.35-1 1.214-.65 1.932.35.717 1.215 1.01 1.924.654.708-.352.998-1.22.646-1.934-.248-.51-.753-.805-1.28-.805-.214 0-.433.05-.64.154m1.22 3.436c-.73.315-1.067 1.163-.75 1.9.312.732 1.158 1.07 1.883.755.727-.316 1.06-1.166.747-1.9-.234-.547-.76-.872-1.313-.872-.19 0-.382.04-.568.118m24.323.06c-.536.343-.696 1.058-.358 1.596.34.544 1.048.7 1.582.36.534-.34.696-1.053.355-1.596-.218-.347-.59-.537-.97-.537-.21 0-.42.056-.61.18m-22.537 2.8c-.742.277-1.123 1.11-.848 1.854.277.757 1.102 1.132 1.84.855.744-.278 1.125-1.103.847-1.858-.214-.58-.76-.942-1.344-.942-.164 0-.33.03-.494.09m21.218.648c-.388.278-.478.818-.206 1.21.277.39.812.482 1.2.206.388-.275.48-.816.204-1.21-.168-.236-.433-.365-.703-.365-.17 0-.346.05-.496.157M6.74 24.347c-.755.237-1.176 1.047-.94 1.81.237.767 1.038 1.187 1.794.95.755-.24 1.178-1.045.943-1.81-.192-.62-.76-1.016-1.37-1.016-.14 0-.284.025-.426.07m16.418.06c-.246.197-.29.56-.094.81.198.25.558.29.805.095.25-.2.29-.56.095-.813-.113-.142-.28-.22-.45-.22-.125 0-.25.043-.357.128m-13.12 1.644c-.61.16-.98.788-.825 1.408.158.622.78.99 1.394.834.615-.158.987-.784.83-1.407-.13-.52-.6-.87-1.112-.87-.094 0-.19.01-.285.035m10.38.59c-.29.126-.425.467-.3.76.126.294.46.43.75.303s.428-.466.303-.76c-.094-.22-.305-.35-.527-.35-.076 0-.153.016-.227.048m-7.11.55c-.468.094-.77.553-.677 1.02.095.47.548.772 1.013.68.464-.096.768-.55.674-1.023-.08-.41-.44-.694-.842-.694-.056 0-.114.006-.17.016m3.812-.013c-.312.048-.53.342-.483.656.045.317.337.534.65.49.312-.05.53-.34.485-.657-.042-.29-.288-.495-.57-.495-.028 0-.055.002-.083.005" id="k"/><path d="M16.75.018c-.467.094-.77.546-.676 1.02.094.468.546.774 1.013.68.465-.096.767-.552.674-1.02C17.68.282 17.32 0 16.925 0c-.056 0-.115.005-.173.018m-3.643.566c-.312.047-.53.338-.483.656.047.316.336.533.65.49.313-.05.53-.34.484-.658-.04-.288-.286-.494-.566-.494-.026 0-.055.003-.083.006m6.682.03c-.614.158-.986.784-.83 1.407.158.62.784.996 1.396.836.612-.158.982-.79.827-1.405-.134-.525-.6-.87-1.11-.87-.093 0-.19.01-.284.035m-10.27.59c-.29.126-.423.464-.3.76.13.292.466.427.755.3.29-.126.426-.466.3-.758-.092-.22-.304-.35-.524-.35-.075 0-.153.015-.227.048M22.8 2.38c-.753.236-1.18 1.044-.942 1.81.235.76 1.04 1.185 1.796.947.755-.237 1.176-1.048.94-1.81-.192-.618-.755-1.014-1.364-1.014-.142 0-.287.02-.43.066m-16.274.633c-.248.2-.29.56-.095.812.2.25.56.293.808.095.25-.2.292-.56.096-.812-.113-.145-.28-.22-.45-.22-.124 0-.25.042-.356.125m18.497 1.7c-.74.278-1.124 1.103-.847 1.856.276.75 1.1 1.13 1.84.853.743-.276 1.122-1.108.848-1.857-.214-.585-.762-.943-1.342-.943-.165 0-.334.03-.5.09m-21.217.65c-.388.275-.482.813-.205 1.207.276.39.813.484 1.2.207.386-.277.48-.82.204-1.208-.168-.24-.432-.37-.7-.37-.172 0-.346.053-.498.16m22.87 2.27c-.73.32-1.065 1.164-.75 1.9.313.733 1.157 1.07 1.882.756.727-.317 1.063-1.168.75-1.9-.236-.547-.762-.872-1.317-.872-.19 0-.38.037-.564.117m-24.42.64c-.535.344-.698 1.054-.356 1.596.338.54 1.047.7 1.58.36.538-.34.696-1.057.357-1.596-.22-.35-.587-.537-.966-.537-.212 0-.425.06-.616.18m25.496 2.86c-.707.352-1 1.22-.648 1.936.353.72 1.21 1.006 1.92.652.71-.352 1.002-1.217.65-1.938-.25-.508-.76-.802-1.29-.802-.212 0-.43.048-.632.15m-26.445.615c-.69.39-.937 1.266-.548 1.966.387.693 1.26.944 1.95.55.692-.39.936-1.27.55-1.967-.264-.473-.75-.738-1.25-.738-.238 0-.48.06-.703.186m26.38 3.468c-.69.388-.937 1.27-.55 1.967.39.7 1.263.942 1.95.55.69-.39.94-1.268.55-1.966-.263-.47-.748-.74-1.25-.74-.237 0-.48.062-.7.188M1.37 15.18c-.706.35-1 1.214-.65 1.932.35.717 1.215 1.01 1.924.654.708-.352.998-1.22.646-1.934-.248-.51-.753-.805-1.28-.805-.214 0-.433.05-.64.154m1.22 3.436c-.73.315-1.067 1.163-.75 1.9.312.732 1.158 1.07 1.883.755.727-.316 1.06-1.166.747-1.9-.234-.547-.76-.872-1.313-.872-.19 0-.382.04-.568.118m24.323.06c-.536.343-.696 1.058-.358 1.596.34.544 1.048.7 1.582.36.534-.34.696-1.053.355-1.596-.218-.347-.59-.537-.97-.537-.21 0-.42.056-.61.18m-22.537 2.8c-.742.277-1.123 1.11-.848 1.854.277.757 1.102 1.132 1.84.855.744-.278 1.125-1.103.847-1.858-.214-.58-.76-.942-1.344-.942-.164 0-.33.03-.494.09m21.218.648c-.388.278-.478.818-.206 1.21.277.39.812.482 1.2.206.388-.275.48-.816.204-1.21-.168-.236-.433-.365-.703-.365-.17 0-.346.05-.496.157M6.74 24.347c-.755.237-1.176 1.047-.94 1.81.237.767 1.038 1.187 1.794.95.755-.24 1.178-1.045.943-1.81-.192-.62-.76-1.016-1.37-1.016-.14 0-.284.025-.426.07m16.418.06c-.246.197-.29.56-.094.81.198.25.558.29.805.095.25-.2.29-.56.095-.813-.113-.142-.28-.22-.45-.22-.125 0-.25.043-.357.128m-13.12 1.644c-.61.16-.98.788-.825 1.408.158.622.78.99 1.394.834.615-.158.987-.784.83-1.407-.13-.52-.6-.87-1.112-.87-.094 0-.19.01-.285.035m10.38.59c-.29.126-.425.467-.3.76.126.294.46.43.75.303s.428-.466.303-.76c-.094-.22-.305-.35-.527-.35-.076 0-.153.016-.227.048m-7.11.55c-.468.094-.77.553-.677 1.02.095.47.548.772 1.013.68.464-.096.768-.55.674-1.023-.08-.41-.44-.694-.842-.694-.056 0-.114.006-.17.016m3.812-.013c-.312.048-.53.342-.483.656.045.317.337.534.65.49.312-.05.53-.34.485-.657-.042-.29-.288-.495-.57-.495-.028 0-.055.002-.083.005" id="m"/><path d="M18.925.866c0 .48.386.868.86.868s.86-.387.86-.868c0-.482-.386-.866-.86-.866s-.86.384-.86.866m4.044.354c-.127.465.15.94.604 1.063.46.123.93-.15 1.054-.612.122-.46-.153-.936-.61-1.06-.075-.02-.15-.03-.224-.03-.38 0-.724.254-.828.64M14.4.61c-.456.122-.73.596-.607 1.06.123.463.596.736 1.052.613.46-.124.732-.598.61-1.064-.104-.39-.45-.644-.828-.644-.075 0-.15.01-.226.03m12.58 2.618c-.13.626.264 1.24.885 1.374.62.13 1.227-.267 1.358-.89.135-.63-.263-1.24-.88-1.37-.082-.02-.163-.028-.244-.028-.53 0-1.003.368-1.118.913m-16.32-.888c-.62.134-1.017.742-.884 1.372.13.623.74 1.02 1.36.89.62-.134 1.015-.75.882-1.375-.115-.545-.588-.913-1.117-.913-.08 0-.16.006-.24.024m-3.72 2.31c-.78.124-1.316.858-1.19 1.65.122.79.857 1.33 1.637 1.204.785-.126 1.317-.867 1.196-1.655-.113-.715-.72-1.218-1.414-1.218-.074 0-.15.008-.227.02m23.47 1.2c-.125.785.41 1.527 1.192 1.653.78.125 1.516-.415 1.638-1.202.126-.794-.41-1.528-1.19-1.652-.076-.01-.152-.02-.226-.02-.695 0-1.304.504-1.417 1.22m2.86 3.804c-.1.95.59 1.805 1.53 1.905.946.1 1.79-.592 1.89-1.544.1-.958-.584-1.807-1.53-1.908-.06-.007-.122-.01-.182-.01-.866 0-1.616.66-1.71 1.554M4.41 8.104c-.948.1-1.63.95-1.53 1.905.098.95.942 1.642 1.888 1.54.945-.1 1.632-.954 1.533-1.904-.09-.894-.84-1.554-1.705-1.554-.062 0-.123.003-.185.01m30.002 5.68c-.05.957.68 1.772 1.626 1.823.95.05 1.76-.685 1.81-1.642.05-.962-.68-1.772-1.627-1.82-.03-.003-.062-.004-.092-.004-.91 0-1.666.712-1.715 1.642M2.78 12.142c-.946.05-1.68.86-1.628 1.822.05.957.86 1.692 1.81 1.642.948-.05 1.676-.866 1.626-1.824-.048-.93-.806-1.642-1.715-1.642-.03 0-.062.003-.093.005m32.206 6.643c0 1.118.897 2.026 2.004 2.026 1.11 0 2.01-.908 2.01-2.023 0-1.124-.9-2.022-2.005-2.022-1.11 0-2.008.898-2.008 2.02M0 18.79c0 1.115.905 2.023 2.01 2.023 1.106 0 2.004-.908 2.004-2.026 0-1.123-.898-2.02-2.004-2.02-1.105 0-2.01.897-2.01 2.023m36.036 2.603c-.946.05-1.675.868-1.625 1.823.05.964.86 1.69 1.81 1.64.95-.05 1.68-.86 1.63-1.823-.05-.923-.81-1.642-1.72-1.642l-.09.005m-34.89 1.64c-.05.963.68 1.773 1.625 1.823.95.05 1.76-.677 1.81-1.64.05-.956-.68-1.774-1.627-1.824l-.092-.002c-.906 0-1.67.72-1.717 1.643m33.65 2.412c-.943.1-1.63.954-1.53 1.907.097.957.946 1.643 1.89 1.542.945-.1 1.63-.947 1.53-1.906-.094-.89-.84-1.552-1.71-1.552-.06 0-.12.003-.18.01M2.876 26.99c-.1.96.584 1.806 1.53 1.906.945.1 1.792-.585 1.892-1.542.096-.953-.59-1.807-1.536-1.907-.06-.006-.12-.01-.182-.01-.87 0-1.616.664-1.707 1.554m28.73 3.09c-.784.127-1.32.867-1.195 1.656.125.792.86 1.324 1.644 1.202.778-.128 1.314-.862 1.188-1.655-.11-.713-.722-1.218-1.413-1.218-.076 0-.15.006-.226.02m-25.853 1.2c-.124.792.41 1.528 1.19 1.654.78.12 1.518-.41 1.643-1.203.122-.788-.41-1.53-1.194-1.653-.076-.01-.15-.017-.226-.017-.692 0-1.3.507-1.412 1.218m22.11 1.698c-.62.134-1.016.748-.884 1.37.13.628.74 1.025 1.36.892.617-.133 1.013-.744.88-1.372-.113-.54-.59-.915-1.12-.915-.08 0-.16.01-.237.025m-18.09.89c-.132.627.266 1.24.884 1.372.62.132 1.228-.265 1.36-.892.133-.623-.263-1.236-.882-1.37-.08-.016-.16-.025-.238-.025-.53 0-1.008.374-1.122.916m13.8.848c-.455.125-.73.6-.607 1.063.124.463.596.736 1.053.612.46-.124.734-.597.61-1.062-.103-.387-.45-.642-.83-.642-.074 0-.15.01-.225.03m-9.783.615c-.12.463.152.936.61 1.06.458.124.93-.15 1.053-.612.122-.463-.152-.938-.61-1.062-.075-.02-.15-.03-.222-.03-.38 0-.726.256-.83.645m5.133.8c0 .48.386.867.86.867s.86-.387.86-.868c0-.48-.386-.867-.86-.867s-.86.385-.86.865" id="n"/><path d="M18.925.866c0 .48.386.868.86.868s.86-.387.86-.868c0-.482-.386-.866-.86-.866s-.86.384-.86.866m4.044.354c-.127.465.15.94.604 1.063.46.123.93-.15 1.054-.612.122-.46-.153-.936-.61-1.06-.075-.02-.15-.03-.224-.03-.38 0-.724.254-.828.64M14.4.61c-.456.122-.73.596-.607 1.06.123.463.596.736 1.052.613.46-.124.732-.598.61-1.064-.104-.39-.45-.644-.828-.644-.075 0-.15.01-.226.03m12.58 2.618c-.13.626.264 1.24.885 1.374.62.13 1.227-.267 1.358-.89.135-.63-.263-1.24-.88-1.37-.082-.02-.163-.028-.244-.028-.53 0-1.003.368-1.118.913m-16.32-.888c-.62.134-1.017.742-.884 1.372.13.623.74 1.02 1.36.89.62-.134 1.015-.75.882-1.375-.115-.545-.588-.913-1.117-.913-.08 0-.16.006-.24.024m-3.72 2.31c-.78.124-1.316.858-1.19 1.65.122.79.857 1.33 1.637 1.204.785-.126 1.317-.867 1.196-1.655-.113-.715-.72-1.218-1.414-1.218-.074 0-.15.008-.227.02m23.47 1.2c-.125.785.41 1.527 1.192 1.653.78.125 1.516-.415 1.638-1.202.126-.794-.41-1.528-1.19-1.652-.076-.01-.152-.02-.226-.02-.695 0-1.304.504-1.417 1.22m2.86 3.804c-.1.95.59 1.805 1.53 1.905.946.1 1.79-.592 1.89-1.544.1-.958-.584-1.807-1.53-1.908-.06-.007-.122-.01-.182-.01-.866 0-1.616.66-1.71 1.554M4.41 8.104c-.948.1-1.63.95-1.53 1.905.098.95.942 1.642 1.888 1.54.945-.1 1.632-.954 1.533-1.904-.09-.894-.84-1.554-1.705-1.554-.062 0-.123.003-.185.01m30.002 5.68c-.05.957.68 1.772 1.626 1.823.95.05 1.76-.685 1.81-1.642.05-.962-.68-1.772-1.627-1.82-.03-.003-.062-.004-.092-.004-.91 0-1.666.712-1.715 1.642M2.78 12.142c-.946.05-1.68.86-1.628 1.822.05.957.86 1.692 1.81 1.642.948-.05 1.676-.866 1.626-1.824-.048-.93-.806-1.642-1.715-1.642-.03 0-.062.003-.093.005m32.206 6.643c0 1.118.897 2.026 2.004 2.026 1.11 0 2.01-.908 2.01-2.023 0-1.124-.9-2.022-2.005-2.022-1.11 0-2.008.898-2.008 2.02M0 18.79c0 1.115.905 2.023 2.01 2.023 1.106 0 2.004-.908 2.004-2.026 0-1.123-.898-2.02-2.004-2.02-1.105 0-2.01.897-2.01 2.023m36.036 2.603c-.946.05-1.675.868-1.625 1.823.05.964.86 1.69 1.81 1.64.95-.05 1.68-.86 1.63-1.823-.05-.923-.81-1.642-1.72-1.642l-.09.005m-34.89 1.64c-.05.963.68 1.773 1.625 1.823.95.05 1.76-.677 1.81-1.64.05-.956-.68-1.774-1.627-1.824l-.092-.002c-.906 0-1.67.72-1.717 1.643m33.65 2.412c-.943.1-1.63.954-1.53 1.907.097.957.946 1.643 1.89 1.542.945-.1 1.63-.947 1.53-1.906-.094-.89-.84-1.552-1.71-1.552-.06 0-.12.003-.18.01M2.876 26.99c-.1.96.584 1.806 1.53 1.906.945.1 1.792-.585 1.892-1.542.096-.953-.59-1.807-1.536-1.907-.06-.006-.12-.01-.182-.01-.87 0-1.616.664-1.707 1.554m28.73 3.09c-.784.127-1.32.867-1.195 1.656.125.792.86 1.324 1.644 1.202.778-.128 1.314-.862 1.188-1.655-.11-.713-.722-1.218-1.413-1.218-.076 0-.15.006-.226.02m-25.853 1.2c-.124.792.41 1.528 1.19 1.654.78.12 1.518-.41 1.643-1.203.122-.788-.41-1.53-1.194-1.653-.076-.01-.15-.017-.226-.017-.692 0-1.3.507-1.412 1.218m22.11 1.698c-.62.134-1.016.748-.884 1.37.13.628.74 1.025 1.36.892.617-.133 1.013-.744.88-1.372-.113-.54-.59-.915-1.12-.915-.08 0-.16.01-.237.025m-18.09.89c-.132.627.266 1.24.884 1.372.62.132 1.228-.265 1.36-.892.133-.623-.263-1.236-.882-1.37-.08-.016-.16-.025-.238-.025-.53 0-1.008.374-1.122.916m13.8.848c-.455.125-.73.6-.607 1.063.124.463.596.736 1.053.612.46-.124.734-.597.61-1.062-.103-.387-.45-.642-.83-.642-.074 0-.15.01-.225.03m-9.783.615c-.12.463.152.936.61 1.06.458.124.93-.15 1.053-.612.122-.463-.152-.938-.61-1.062-.075-.02-.15-.03-.222-.03-.38 0-.726.256-.83.645m5.133.8c0 .48.386.867.86.867s.86-.387.86-.868c0-.48-.386-.867-.86-.867s-.86.385-.86.865" id="o"/></defs><g fill="none"><g><g><path d="M64.523 26.594H61.67c-.255 0-.35-.238-.464-.466l-3.367-5.662h-.52c-.607 0-2.5-.065-3.033-.093v5.755c0 .255-.19.466-.446.466h-2.33c-.257 0-.47-.21-.47-.466V10.83c0-.467.28-.63.747-.7 1.217-.187 3.83-.302 5.536-.302 3.6 0 6.918 1.285 6.918 5.274v.212c0 2.472-1.232 3.824-3.15 4.568l3.666 6.246c.05.07.05.136.05.186 0 .162-.095.28-.28.28zm-3.16-11.39c0-1.74-1.395-2.485-3.782-2.485-.5 0-2.67.045-3.1.09v5.04c.38.022 2.695.07 3.1.07 2.46 0 3.784-.466 3.784-2.507v-.21zm10.112 7.073c0 2.003.073 2.057 1.843 2.057h5.927c.255 0 .468.216.468.478v1.525c0 .336-.12.456-.468.503-.75.12-2.275.332-5.057.332-3.884 0-5.944.028-5.944-4.895V14.72c0-4.92 2.06-4.892 5.944-4.892 2.782 0 4.307.218 5.057.334.348.046.468.17.468.505v1.524c0 .264-.213.48-.468.48h-5.927c-1.77 0-1.843.056-1.843 2.05v2.194h7.49c.255 0 .466.218.466.477v1.723c0 .26-.21.477-.464.477h-7.49v2.686zm18.844 4.895c-3.85 0-7.168-1.634-7.168-6.606V10.85c0-.26.22-.444.482-.444H86c.266 0 .48.185.48.444v9.716c0 2.662 1.26 3.922 3.84 3.922 2.587 0 3.845-1.26 3.845-3.922V10.85c0-.26.215-.444.48-.444h2.37c.264 0 .476.185.476.444v9.716c0 4.972-3.31 6.606-7.17 6.606zm22.754-14.03h-4.75v13.56c0 .257-.218.47-.482.47h-2.353c-.263 0-.48-.213-.48-.47V13.14h-4.75c-.26 0-.476-.16-.476-.422v-1.866c0-.26.215-.448.475-.448h12.815c.253 0 .472.187.472.448v1.866c0 .262-.22.423-.472.423zm31.732 13.452h-2.854c-.255 0-.344-.238-.462-.466l-3.365-5.662h-.525c-.603 0-2.494-.065-3.036-.093v5.755c0 .255-.182.466-.437.466h-2.335c-.26 0-.466-.21-.466-.466V10.83c0-.467.274-.63.742-.7 1.215-.187 3.834-.302 5.533-.302 3.608 0 6.928 1.285 6.928 5.274v.212c0 2.472-1.24 3.824-3.156 4.568l3.676 6.246c.045.07.045.136.045.186 0 .162-.095.28-.28.28zm-3.733-11.39c0-1.74-1.39-2.485-3.782-2.485-.49 0-2.666.045-3.1.09v5.04c.39.022 2.704.07 3.1.07 2.463 0 3.783-.466 3.783-2.507v-.21zm12.652 11.968c-2.104 0-4.24-.366-5.388-.63-.237-.047-.454-.212-.454-.473v-1.725c0-.258.217-.453.453-.453h.05c.95.12 3.186.432 5.385.432 2.123 0 2.774-.76 2.774-2.146 0-1.79-4.268-2.78-6.352-3.644-2.077-.857-2.812-2.503-2.812-4.17 0-2.628 2.116-4.54 6.547-4.54 2.275 0 4.35.433 5.16.628.245.047.43.213.43.45v1.767c0 .24-.166.432-.403.432h-.05c-1.57-.143-3.2-.435-5.275-.435-1.77 0-3.096.622-3.096 1.697 0 .785.906 1.505 1.958 1.928 1.06.416 2.447.96 4.03 1.596 2.01.814 3.314 2 3.314 4.29 0 2.41-1.5 4.99-6.273 4.99zm-34.656-4.895c0 2.003.073 2.057 1.846 2.057h5.928c.254 0 .467.216.467.478v1.525c0 .336-.116.456-.466.503-.75.12-2.274.332-5.06.332-3.89 0-5.943.028-5.943-4.895V14.72c0-4.92 2.055-4.892 5.944-4.892 2.786 0 4.31.218 5.06.334.35.046.467.17.467.505v1.524c0 .264-.212.48-.466.48h-5.928c-1.773 0-1.846.056-1.846 2.05v2.194h7.494c.26 0 .467.218.467.477v1.723c0 .26-.205.477-.465.477h-7.492v2.686z" fill="#737C81"/><g transform="translate(13.19 12.141)"><mask id="c"><use xlink:href="#a"/></mask><use fill="#D8D8D8" xlink:href="#a"/><g><use fill="url(#b)" mask="url(#c)" xlink:href="#d"/><use fill="#737C81" xlink:href="#d"/></g></g><g transform="translate(10.896 9.25)"><mask id="f"><use xlink:href="#e"/></mask><g><use fill="url(#b)" mask="url(#f)" xlink:href="#g"/><use fill="#737C81" xlink:href="#g"/></g></g><g transform="translate(8.029 6.938)"><mask id="i"><use xlink:href="#h"/></mask><g><use fill="url(#b)" mask="url(#i)" xlink:href="#j"/><use fill="#737C81" xlink:href="#j"/></g></g><g transform="translate(4.014 3.469)"><mask id="l"><use xlink:href="#k"/></mask><use fill="#D8D8D8" xlink:href="#k"/><g><use fill="url(#b)" mask="url(#l)" xlink:href="#m"/><use fill="#737C81" xlink:href="#m"/><use xlink:href="#m"/></g></g><g transform="translate(-630 -140) translate(630 140)"><mask><use xlink:href="#n"/></mask><use fill="#D8D8D8" xlink:href="#n"/><g><use fill="url(#b)" xlink:href="#o"/><use fill="#737C81" xlink:href="#o"/></g></g></g></g></g></svg>