<svg width="180" height="26" viewBox="0 0 180 26" xmlns="http://www.w3.org/2000/svg"><title>TC</title><desc>Created with Sketch Beta.</desc><g fill="none"><g fill="#737C81"><g><path d="M67.34 10.16v11.507h-4.085V10.16h-4.127V6.495h12.34v3.663H67.34zm8.653 2.773c-.863 0-1.347.607-1.474 1.733h3.156c-.19-1.148-.57-1.733-1.685-1.733m5.013 4.16H74.52c.126 1.258.84 1.82 1.873 1.82.968 0 1.77-.216 2.864-.8l1.452 2.492c-1.37.822-2.78 1.3-4.508 1.3-3.328 0-5.16-2.428-5.16-5.917 0-3.922 2.148-5.938 5.054-5.938 3.032 0 4.928 2.06 4.928 6.284 0 .327 0 .565-.02.76m7.052 4.81c-3.242 0-5.18-2.123-5.18-5.96 0-3.49 1.727-5.893 5.264-5.893 2.086 0 3.286 1 4.254 2.6l-2.61 2.04c-.527-.997-.886-1.474-1.706-1.474-.97 0-1.453.997-1.453 2.796 0 1.8.526 2.73 1.557 2.73.716 0 1.22-.41 1.916-1.472l2.4 1.928c-1.283 1.95-2.484 2.71-4.442 2.71M100.983 21.667v-6.46c0-1.473-.484-1.863-1.263-1.863-.8 0-1.286.39-1.286 1.82v6.503h-3.79V7.427l3.79-1.56v5.18c.695-.542 1.474-.997 2.78-.997 2.422 0 3.58 1.668 3.58 4.66v6.957h-3.81zm12.884.238c-4.38 0-6.718-3.338-6.718-7.824 0-4.873 2.78-7.82 6.736-7.82 3.622 0 5.054 1.603 6.064 4.465l-3.704 1.495c-.527-1.41-1.032-2.3-2.38-2.3-1.705 0-2.442 1.757-2.442 4.16 0 2.32.715 4.163 2.484 4.163 1.283 0 1.83-.715 2.63-2.145l3.455 1.885c-.99 1.994-2.633 3.923-6.128 3.923M129.318 14.58c-.484-.542-1.03-.954-1.768-.954-.927 0-1.496.455-1.496 1.842v6.2h-3.79v-11.38h3.79v.824c.654-.65 1.39-1.062 2.36-1.062.8 0 1.348.195 1.79.477l-.886 4.053zm9.012 7.087v-.76c-.675.542-1.474.998-2.758.998-2.422 0-3.58-1.668-3.58-4.66v-6.957h3.81v6.46c0 1.47.485 1.863 1.264 1.863.78 0 1.264-.39 1.264-1.82v-6.5h3.81v11.38h-3.81zm12.884 0v-6.46c0-1.473-.484-1.863-1.263-1.863-.8 0-1.282.39-1.282 1.82v6.503h-3.79v-11.38h3.79v.76c.694-.542 1.473-.997 2.78-.997 2.422 0 3.58 1.668 3.58 4.66v6.957h-3.812zm11.2.238c-3.243 0-5.18-2.124-5.18-5.96 0-3.49 1.726-5.894 5.263-5.894 2.085 0 3.285 1 4.254 2.6l-2.61 2.04c-.524-.997-.883-1.474-1.703-1.474-.97 0-1.454.997-1.454 2.796 0 1.8.527 2.73 1.56 2.73.715 0 1.22-.41 1.915-1.472l2.4 1.928c-1.283 1.95-2.484 2.71-4.442 2.71"/><path d="M175.34 21.667v-6.46c0-1.473-.485-1.863-1.264-1.863-.8 0-1.285.39-1.285 1.82v6.503H169V7.427l3.79-1.56v5.18c.696-.542 1.475-.997 2.78-.997 2.423 0 3.58 1.668 3.58 4.66v6.957h-3.81zM0 0v8.667h8.42V26h8.422V8.667h8.42V0H0zm33.684 17.333V8.667h-8.42V26h25.262v-8.667H33.684zm0-8.666h16.842V0H33.684v8.667z"/></g></g></g></svg>