<svg xmlns="http://www.w3.org/2000/svg" width="159.412" height="33.105" viewBox="0.134 0.31 159.412 33.105" enable-background="new 0.134 0.31 159.412 33.105"><path fill="#737C81" d="M56.153 9.307V5.53H40.72v3.777h5.372V24.22H40.72v3.777h15.433V24.22h-5.86V9.306h5.86M81.794 9.456H75.64v6.164s3.32-.1 6.055-.1c2.736 0 3.418-.596 3.418-3.38 0-3.18-3.32-2.684-3.32-2.684zM64.016.31v33.105h31.94V.31h-31.94zM89.51 22.578v5.17h-4.395v-4.87s0-3.78-2.54-3.78-6.935.1-6.935.1v8.65h-4.298V5.578H84.04s5.47-.298 5.47 5.767-3.32 6.362-3.32 6.362 3.32.2 3.32 4.87zm12.308-17v3.68h3.027v15.01h-3.027v3.68h18.656V20.69h-3.71v3.58h-7.913v-6.065h5.863v-3.678h-5.86v-5.27h7.618v3.58h4.007v-7.26H101.82"/><path fill="#737C81" d="M145.872 9.356h-6.642V24.27h6.934c3.322 0 3.42-4.375 3.42-4.375v-5.767c0-5.072-3.712-4.772-3.712-4.772zM127.605.31v33.105h31.94V.31h-31.94zm18.754 27.835c-8.01 0-11.627.1-11.627.1V5.68h9.477s9.77-1.093 9.77 7.854v6.262s.39 8.35-7.62 8.35zM.133.31v33.105h31.94V.31H.134zM25.53 27.948h-5.47l-3.52-16.205-3.81 16.303H7.36L2.867 5.678h4.397l3.028 17 3.907-17 4.783.1 3.907 17.2 2.93-17.3h4.2l-4.49 22.27z"/></svg>