<svg width="202" height="20" viewBox="0 0 202 20" xmlns="http://www.w3.org/2000/svg"><title>WSJ</title><desc>Created with Sketch Beta.</desc><g fill="none"><g stroke="#737C81" stroke-width=".25" fill="#737C81"><g><path d="M200.036 16.43c-.515 0-.964.54-.964 1.284 0 .743.426 1.286.964 1.286s.964-.543.964-1.286c-.022-.714-.448-1.285-.964-1.285zm-39.553 1.41h4.933v-.457l-.53-.134c-.482-.137-.71-.406-.71-1.157V9.04h1.14c.707 0 1.087.188 1.112 1.77l.126 3.327c.102 2.978.91 3.81 2.277 3.81 1.395 0 1.774-1.02 1.774-2.442v-.59h-.506v.43c0 .965-.126 1.636-.455 1.636-.328 0-.353-.266-.404-1.446l-.153-2.28c-.202-3.058-.556-4.13-2.68-4.534 2.023-.564 3.288-2.147 3.288-4.4 0-2.924-2.176-4.32-4.25-4.32h-8.35v.457l.456.107c.886.215.91.698.91 2.79V13.68c0 2.308-.606 3.435-1.997 3.435-1.24 0-1.923-.644-1.923-3.166V1.69c0-.724.227-.94.76-1.073l.656-.16V0h-5.11v.456l.53.16c.48.162.658.377.658 1.1v12.046c0 2.71 1.493 4.238 3.77 4.238s3.39-1.502 3.39-4.292V2.414c0-1.395.28-1.904 1.34-1.904.86 0 1.216.322 1.216 1.153v14.432c0 .725-.228.993-.71 1.127l-.53.16-.025.457zm32.34-16.112c0-.707.227-.943.71-1.047l.66-.154V.052h-5.1v.445l.533.157c.482.157.71.367.71 1.074v14.16c0 .682-.28 1.074-1.04 1.074-.888 0-1.014-.314-1.32-1.806L184.833 0h-.99l-2.992 14.685c-.353 1.65-.506 2.015-1.165 2.225l-.406.13v.446h3.5v-.445l-.508-.102c-.734-.157-.937-.55-.557-2.487l1.776-9.397L185.415 15c.305 1.44.28 1.727-.786 1.91l-.51.105v.445h12.987V11.7h-.456c-.254 2.645-.76 5.157-2.84 5.157h-.99V1.727zm-7.63 10.615h-2.924l-.1.514h3.37l-.35-.514zM171.916 14.1c0 1.837 0 2.677-.868 2.834l-.42.08v.445h3.518v-.45c-1.537-.235-1.537-.787-1.537-2.756V3.23l-.57-1.05 5.87 15.306h1.016v-14.1c0-2.073 0-2.546.966-2.808l.347-.105V.026h-3.618v.447l.397.105c1.213.236 1.213.735 1.213 2.65v8.823l.248-.076L174.023 0h-3.42v.446l.347.105c.344.108.57.58.964 1.42V14.1zM163.856.513h.997c.998 0 1.894.66 1.894 3.99 0 3.408-.69 3.725-2.073 3.725h-.82V.513zM147.95 8.558c0 7.358-.612 8.413-1.94 8.413-1.33 0-1.916-1.052-1.916-8.36 0-7.092.64-8.094 1.915-8.094 1.302 0 1.94 1.002 1.94 8.044zm2.41.43c0-4.935-1.434-8.988-4.35-8.988-2.94 0-4.325 4.08-4.325 8.987 0 4.96 1.433 9.013 4.325 9.013 2.99 0 4.35-4.08 4.35-9.013zm-9.867-7.27c0-.725.177-.967.66-1.1l.532-.162V0h-5.073v.456l.61.16c.48.135.76.323.76 1.074v12.474c0 1.744-.152 3.14-1.37 3.14-.786 0-1.37-.645-1.344-1.128.076-.805 1.344-.75 1.446-2.04.076-.938-.482-1.313-1.015-1.394-.76-.107-1.7.564-1.726 1.932-.025 1.743 1.066 3.326 2.892 3.326 2.03 0 3.6-1.45 3.6-4.238l.027-12.045zm-81.16.01c0-.707.227-.943.708-1.047l.66-.154V.052h-5.09v.445l.534.157c.48.157.71.367.71 1.074v14.16c0 .682-.28 1.074-1.04 1.074-.886 0-1.038-.314-1.342-1.806L51.33 0h-.988l-2.988 14.685c-.355 1.65-.507 2.015-1.166 2.225l-.405.13v.446h3.495v-.445l-.506-.102c-.735-.157-.937-.55-.557-2.487l1.773-9.423 1.925 10c.278 1.44.278 1.727-.786 1.91l-.506.105v.447h12.996v-5.76h-.455c-.254 2.644-.76 5.157-2.837 5.157h-.988V1.727zm67.19-1.124h.52c1.48 0 1.976 2.52 2.15 5.172h.444V0h-8.676v5.776h.447c.172-2.652.666-5.172 2.15-5.172h.518V15.78c0 .708-.223.97-.692 1.102l-.618.157v.444h5.165v-.447l-.74-.184c-.447-.132-.694-.29-.694-1.077L126.52.6zm-11 8.1l.76.026c1.086.026 1.415.447 1.643 3.234h.455V4.89h-.453c-.28 2.21-.557 3.156-1.62 3.182l-.783.027V.602h1.694c1.87 0 2.3 2.47 2.554 5.18h.456V0h-8.423v.447l.53.158c.558.158.71.5.71 1.104v14.065c0 .71-.228.972-.71 1.104l-.53.16v.445h8.675V11.7h-.455c-.304 2.657-.607 5.18-2.808 5.18h-1.695V8.704zm-9.016 0l.736.026c1.057.026 1.376.447 1.597 3.234h.443V4.89h-.443c-.27 2.21-.54 3.156-1.572 3.182l-.76.027V.602h1.645c1.82 0 2.236 2.524 2.482 5.18h.443V0h-8.43v.447l.762.158c.54.158.688.5.688 1.104v14.065c0 .71-.22.972-.688 1.104l-.516.16v.445h8.43V11.7h-.443c-.293 2.657-.59 5.18-2.726 5.18h-1.646V8.704zM96.385.514h.814c1.093 0 2.075.66 2.075 3.99 0 3.354-.758 3.724-2.274 3.724h-.616V.513zM92.53 17.38h4.807v-.443l-.518-.13c-.47-.132-.69-.393-.69-1.125V8.808h.885c.69 0 1.06.314 1.084 1.725l.124 3.24c.098 2.902.887 3.713 2.218 3.713 1.356 0 1.726-.993 1.726-2.38v-.574h-.495v.418c0 .94-.124 1.595-.444 1.595s-.345-.262-.394-1.412l-.148-2.22c-.2-3.06-.568-4.026-2.614-4.418 1.972-.55 3.204-2.09 3.204-4.287 0-2.85-2.12-4.208-4.14-4.208h-4.56v.444l.517.157c.468.16.69.37.69 1.075v14.01c0 .705-.222.966-.69 1.097l-.518.158-.05.444zM88.934.605h.52c1.482 0 1.976 2.52 2.15 5.172h.444V0h-8.675v5.776h.445c.173-2.652.668-5.172 2.15-5.172h.52V15.78c0 .708-.223.97-.693 1.102l-.617.157v.444h5.04v-.447l-.617-.158c-.614-.16-.69-.658-.69-1.104V.603h.026zm-5.08 12.662c0-5.296-5.67-6.687-5.67-10.538 0-.83.313-2.06 1.568-2.06 1.83 0 2.51 2.406 2.796 5.32h.47V.11h-.313c-.13.562-.366.83-.68.83-.574 0-.888-.937-2.273-.937-2.144 0-3.607 1.847-3.607 4.228 0 4.36 5.672 6.205 5.672 10.244 0 1.846-.837 2.86-1.96 2.86-1.7 0-2.798-2.03-3.11-5.32h-.472v5.884h.314c.26-.856.572-.936.86-.936.47 0 .993 1.043 2.457 1.043 2.22 0 3.945-1.98 3.945-4.733zM67.202 1.68c0-.71.22-.945.685-1.05l.634-.157V0h-4.904v.446l.513.158c.463.157.682.367.682 1.076v14.1c0 .708-.22.97-.682 1.102l-.513.157v.444h7.71V11.71h-.438c-.245 2.65-.733 5.172-2.734 5.172H67.2V1.68zM51.194 12.343h-2.9l-.1.514h3.373l-.373-.514zm-13.9 5.143h1.017L40.6 5.052h-.355l2.516 12.434h.89L46.64 2.8c.33-1.544.483-2.067 1.092-2.224l.458-.13V0h-3.455v.445l.508.105c.736.157.914.602.56 2.486l-1.932 9.843h.305L42.22 2.51c-.203-.995-.33-1.806.483-1.937L43.24.47V.027h-4.752V.47l.33.08c.483.13.56.42.762 1.387l.762 3.77-.152-2.278-1.702 9.21h.228L36.734 2.51c-.228-1.044-.304-1.83.483-1.96l.38-.08V.027H32.77V.47l.46.132c.43.13.685.367.99 1.754l3.074 15.13zm-12.37-8.783l.758.027c1.09.026 1.418.447 1.645 3.234h.455V4.89h-.455c-.278 2.21-.556 3.156-1.618 3.182l-.786.027V.602h1.694c1.87 0 2.3 2.524 2.553 5.18h.458V0h-8.422v.447l.53.158c.557.158.71.5.71 1.104v14.065c0 .71-.23.972-.71 1.104l-.53.16v.445h8.675V11.7h-.455c-.303 2.657-.607 5.18-2.807 5.18h-1.694V8.704zM9.157 17.486h4.988v-.447l-.555-.134c-.428-.105-.73-.394-.73-1.13V8.85h3.678v6.93c0 .71-.303 1.025-.73 1.13l-.555.13v.448h4.988v-.447l-.526-.156c-.48-.13-.705-.394-.705-1.13V1.68c0-.71.225-.945.704-1.076l.53-.158V0h-4.99v.446l.555.158c.402.13.73.315.73 1.05v6.51h-3.68v-6.51c0-.71.277-.92.73-1.05l.555-.158V0H9.157v.446l.53.158c.477.157.704.367.704 1.076v14.1c0 .708-.224.97-.702 1.102l-.53.157v.444zM5.552.604h.52c1.487 0 1.983 2.52 2.157 5.172h.443V0H0v5.776h.446C.62 3.124 1.116.604 2.602.604h.52V15.78c0 .708-.222.97-.693 1.102l-.62.157v.444h5.18v-.447l-.746-.184c-.446-.132-.694-.29-.694-1.077V.603z"/></g></g></g></svg>