<svg width="51" height="46" viewBox="0 0 51 46" xmlns="http://www.w3.org/2000/svg"><title>Group</title><desc>Created with Sketch.</desc><g fill="none"><g><path d="M50.294 20.03l-2.674-4.635-9.17 7.29L26 19.5l-12.86 9.355-12.6-6.023c.035.83.26 1.56.688 2.302l10.024 17.378c.46.8 1.12 1.412 1.89 1.863.784.46 1.5.698 2.587.842h20.09c.94 0 1.843-.278 2.63-.74.77-.45 1.36-1.05 1.82-1.85L50.292 25.25c.932-1.615.932-3.604 0-5.22zM.54 22.832c.035.83.26 1.56.688 2.302l10.024 17.378c.46.8 1.12 1.412 1.89 1.863v-15.52L.54 22.832z" id="Shape" fill="#296BAB"/><path d="M13.14 44.375c.786.46 1.503.698 2.59.842H26V19.5l-12.86 9.355v15.52z" id="Shape" fill="#0077B8"/><path d="M26 19.5v25.717h9.82c.94 0 1.845-.278 2.63-.74V22.685L26 19.5z" id="Shape" fill="#1E8BC7"/><path d="M47.62 15.395l-9.17 7.29v21.793c.77-.45 1.36-1.05 1.82-1.85L50.295 25.25c.932-1.615.932-3.604 0-5.22l-2.674-4.635" id="Shape" fill="#4C9DD3"/><path d="M12.672 24.25l12.438-8.938 12.406 2.97 8.144-6.41-5.334-9.263C39.394.992 37.672 0 35.81 0H15.762c-1.863 0-3.584.995-4.515 2.61l-9.48 16.473 10.905 5.167z" fill="#BEDBE8"/><path d="M38.45 22.684l9.17-7.29-2.11-3.788-8.072 6.388L25 15l-12.332 8.857L1.965 18.74l-.733 1.27c-.502.872-.73 1.852-.69 2.822l12.6 6.023L26 19.5" fill="#fff"/></g></g></svg>