<svg width="122" height="76" viewBox="0 0 122 76" xmlns="http://www.w3.org/2000/svg"><title>Shape</title><desc>Created with Sketch.</desc><g fill="none"><path d="M121 3.96v17.76c0 1.634-1.31 2.96-2.93 2.96-1.615 0-2.926-1.326-2.926-2.96V6.92H100.51c-1.616 0-2.927-1.326-2.927-2.96S98.893 1 100.51 1h17.56c1.62 0 2.93 1.326 2.93 2.96zm-12.565 9.747c1.142 1.158 1.142 3.03 0 4.186l-27.142 27.45c1.027 1.762 1.66 3.787 1.66 5.977 0 6.53-5.254 11.84-11.71 11.84-6.454 0-11.705-5.31-11.705-11.84 0-2.19.63-4.215 1.657-5.976l-7.455-7.542c-1.74 1.042-3.746 1.678-5.91 1.678-2.165 0-4.17-.636-5.91-1.678L22.757 57.184c1.027 1.76 1.66 3.786 1.66 5.976 0 6.53-5.255 11.84-11.71 11.84C6.253 75 1 69.69 1 63.16c0-6.527 5.254-11.84 11.707-11.84 2.166 0 4.17.636 5.912 1.678l19.16-19.382c-1.027-1.76-1.66-3.786-1.66-5.976 0-6.527 5.255-11.84 11.71-11.84 6.455 0 11.708 5.313 11.708 11.84 0 2.19-.632 4.215-1.66 5.976l7.455 7.542c1.74-1.042 3.746-1.678 5.91-1.678 2.165 0 4.17.636 5.91 1.678l27.144-27.45c1.14-1.158 2.994-1.158 4.138 0zM18.56 63.16c0-3.265-2.622-5.92-5.853-5.92-3.225 0-5.85 2.655-5.85 5.92s2.625 5.92 5.85 5.92c3.23 0 5.854-2.655 5.854-5.92zm35.122-35.52c0-3.265-2.623-5.92-5.85-5.92-3.23 0-5.854 2.655-5.854 5.92s2.625 5.92 5.853 5.92c3.23 0 5.852-2.655 5.852-5.92zM77.1 51.32c0-3.265-2.627-5.92-5.858-5.92-3.225 0-5.85 2.655-5.85 5.92s2.625 5.92 5.85 5.92c3.23 0 5.857-2.655 5.857-5.92z" stroke="#fff" fill="#fff"/></g></svg>