<svg xmlns="http://www.w3.org/2000/svg" width="507.849" height="413.252" viewBox="196.075 243.372 507.849 413.252" enable-background="new 196.075 243.372 507.849 413.252"><path fill="#fff" d="M703.924 292.34c-18.725 8.286-38.742 13.882-59.834 16.464 21.523-12.914 38.096-33.36 45.844-57.684-20.123 11.945-42.398 20.664-66.184 25.29-19.05-20.34-46.17-33.038-76.088-33.038-57.574 0-104.174 46.707-104.174 104.283 0 8.178.86 16.143 2.69 23.78C359.54 367.13 282.7 325.588 231.37 262.416c-8.93 15.39-14.097 33.36-14.097 52.41 0 36.16 18.51 68.123 46.492 86.848-17.22-.43-33.362-5.166-47.352-13.02v1.29c0 50.583 35.944 92.66 83.62 102.236-8.718 2.368-17.973 3.66-27.443 3.66-6.672 0-13.235-.646-19.585-1.938 13.238 41.434 51.765 71.563 97.396 72.428-35.622 27.98-80.606 44.66-129.465 44.66-8.395 0-16.68-.536-24.86-1.505 45.953 29.918 100.73 47.137 159.49 47.137 191.883 0 296.703-158.95 296.703-296.81 0-4.522-.105-9.042-.32-13.454 20.338-14.735 37.986-33.03 51.976-54.018z"/></svg>